<?xml version="1.0" standalone="no"?>
<!DOCTYPE svg PUBLIC "-//W3C//DTD SVG 20010904//EN"
 "http://www.w3.org/TR/2001/REC-SVG-20010904/DTD/svg10.dtd">
<svg version="1.0" xmlns="http://www.w3.org/2000/svg"
 width="700.000000pt" height="700.000000pt" viewBox="0 0 700.000000 700.000000"
 preserveAspectRatio="xMidYMid meet">
<metadata>
Created by potrace 1.14, written by Peter Selinger 2001-2017
</metadata>
<g transform="translate(0.000000,700.000000) scale(0.100000,-0.100000)"
fill="#000000" stroke="none">
<path d="M2248 6970 c-65 -40 -116 -87 -143 -135 -29 -50 -50 -113 -245 -735
-29 -91 -80 -255 -115 -365 -35 -110 -87 -274 -115 -365 -29 -91 -61 -193 -72
-227 -11 -34 -20 -66 -21 -70 -14 -77 -35 -104 -249 -322 -119 -121 -228 -240
-242 -263 -28 -49 -36 -83 -42 -183 -5 -95 -5 -1489 0 -1597 8 -162 19 -177
317 -482 101 -103 189 -200 196 -214 7 -15 30 -85 52 -157 79 -257 152 -490
161 -515 5 -14 30 -92 55 -175 212 -683 292 -927 323 -975 36 -56 88 -103 154
-136 46 -23 66 -26 207 -32 209 -9 1420 -8 1644 0 147 6 186 11 224 28 59 26
128 82 157 129 26 40 127 343 331 991 95 303 137 438 175 560 23 74 55 176 71
225 l29 90 193 195 c209 213 262 271 282 310 21 40 31 169 34 417 1 95 -7 88
118 98 89 7 132 22 172 57 67 61 77 120 75 442 -2 233 -10 272 -69 332 -56 56
-135 82 -255 83 l-45 1 -1 198 c-1 114 -6 215 -13 239 -16 59 -77 135 -261
323 -88 91 -176 181 -195 200 -35 37 -36 39 -216 615 -28 88 -63 201 -79 250
-16 50 -52 164 -80 255 -28 91 -97 303 -152 473 l-100 308 -63 62 c-106 105
-8 96 -1153 96 l-997 0 -47 -29z m188 -177 c4 -10 8 -159 10 -330 3 -344 1
-332 67 -366 35 -18 66 -12 106 22 l32 28 0 331 0 332 650 0 649 0 1 -222 c1
-403 6 -451 54 -482 41 -27 68 -26 110 4 l40 28 2 278 c2 369 1 357 17 379 14
19 15 19 65 -4 89 -42 87 -37 222 -466 91 -287 158 -499 190 -605 15 -52 49
-162 74 -244 25 -82 44 -153 43 -157 -2 -5 -91 77 -198 182 -221 215 -291 273
-359 293 -56 16 -295 22 -332 7 -57 -21 -78 -100 -41 -150 l19 -26 -214 -3
c-117 -1 -213 0 -213 2 0 3 7 12 16 21 9 9 19 35 21 59 4 35 1 47 -20 72 l-25
29 -492 2 c-526 2 -546 0 -615 -49 -46 -33 -117 -98 -303 -279 -90 -88 -167
-159 -172 -159 -5 0 -5 11 0 28 5 15 25 79 44 142 57 191 230 729 320 999 90
267 89 266 166 303 45 22 56 22 66 1z m36 -1216 c-3 -11 -23 -36 -45 -56 -22
-20 -52 -47 -67 -61 -58 -54 -227 -207 -269 -245 -25 -22 -54 -49 -66 -60 -17
-17 -214 -198 -251 -230 -6 -5 -38 -35 -70 -65 -146 -137 -170 -155 -69 -51
177 182 708 713 752 752 46 42 94 51 85 16z m1802 -72 c20 -19 33 -35 29 -35
-9 1 -73 57 -73 65 0 10 9 4 44 -30z m-216 -242 c30 -27 64 -56 76 -66 23 -20
21 -20 -39 8 -22 10 -96 38 -165 62 l-125 42 99 1 99 0 55 -47z m-1338 30 c-8
-3 -42 -16 -75 -29 l-60 -23 33 28 c24 20 43 28 75 29 23 0 35 -2 27 -5z m784
-135 c28 -4 69 -10 91 -13 265 -38 578 -187 789 -375 323 -288 514 -640 563
-1040 15 -121 9 -437 -11 -535 -84 -429 -352 -821 -726 -1064 -96 -62 -268
-146 -380 -184 -284 -99 -608 -118 -895 -53 -175 40 -268 78 -508 205 -110 58
-124 58 -170 9 l-29 -31 -76 76 c-43 41 -99 96 -125 122 l-49 47 22 23 c40 43
25 93 -70 236 -313 468 -370 999 -164 1532 52 136 176 355 236 418 7 8 29 34
50 59 197 243 500 443 790 520 75 20 90 24 153 36 115 22 405 29 509 12z
m1426 -668 c3 -3 38 -34 78 -69 l72 -64 -1 -141 c-1 -78 -4 -132 -6 -121 -20
79 -129 321 -190 420 l-26 40 34 -30 c19 -16 36 -32 39 -35z m-3613 -156 c-1
-2 -23 -4 -48 -5 l-45 -3 0 -818 c1 -450 -2 -818 -6 -818 -10 0 -10 25 -12
856 -2 678 2 823 24 850 12 13 18 10 51 -22 21 -21 37 -39 36 -40z m303 -36
c-26 -57 -55 -123 -64 -148 -17 -49 -19 -42 -17 64 l1 69 63 58 c34 32 63 58
64 59 1 0 -20 -46 -47 -102z m4137 -552 c11 -11 9 -457 -2 -464 -12 -8 -25
-10 -84 -14 l-46 -2 -3 248 -2 248 65 -5 c36 -2 68 -7 72 -11z m-677 -935 l0
-130 -46 -43 c-26 -24 -52 -47 -59 -53 -6 -5 -33 -30 -59 -55 l-48 -45 37 62
c50 87 107 212 141 311 15 45 29 82 31 82 2 0 3 -58 3 -129z m-3464 -98 c17
-35 30 -63 27 -63 -2 0 -26 23 -53 50 l-50 50 1 68 0 67 22 -55 c11 -30 35
-83 53 -117z m-391 -42 c3 -5 2 -12 -3 -15 -5 -3 -9 1 -9 9 0 17 3 19 12 6z
m98 -107 c-3 -8 -9 -14 -13 -14 -4 0 -13 6 -19 14 -9 11 -7 14 13 14 17 0 23
-5 19 -14z m389 -421 c88 -87 200 -196 248 -243 275 -268 450 -443 450 -452 0
-5 -20 8 -45 29 -63 55 -830 823 -821 823 4 0 80 -71 168 -157z m2408 -335
c-25 -23 -60 -55 -77 -71 l-33 -31 -137 -2 c-76 -1 -129 0 -118 3 106 24 331
103 370 130 40 27 37 12 -5 -29z m-1375 -73 c50 -15 101 -31 115 -35 22 -8
-96 -14 -204 -12 -20 1 -47 18 -96 64 -37 35 -70 68 -73 74 -3 6 34 -6 82 -27
48 -20 127 -49 176 -64z m-704 -227 c322 -309 286 -287 469 -294 205 -9 1609
-9 1672 0 78 10 119 40 310 226 183 177 272 260 275 257 1 -2 -9 -41 -23 -87
-14 -47 -32 -105 -39 -130 -7 -25 -25 -83 -40 -130 -15 -47 -52 -164 -82 -260
-166 -528 -243 -763 -259 -788 -19 -30 -82 -70 -121 -78 -30 -6 -32 -5 -39 32
-4 21 -8 172 -8 336 -1 163 -3 298 -6 300 -73 59 -106 62 -152 19 -41 -38 -44
-66 -47 -416 -1 -148 -4 -271 -5 -272 -2 -2 -738 -4 -1152 -3 l-142 0 0 308
c0 169 -1 318 -2 332 -1 30 -62 80 -98 80 -31 0 -77 -27 -92 -55 -8 -15 -12
-120 -13 -331 -1 -170 -6 -315 -10 -321 -12 -19 -32 -16 -87 12 -37 19 -54 35
-66 63 -29 67 -242 717 -358 1092 -42 135 -80 258 -85 273 -6 16 -6 27 -2 25
5 -2 96 -87 202 -190z m2249 19 c-36 -34 -77 -71 -91 -82 -14 -11 13 17 61 62
47 45 87 82 90 83 3 0 -24 -28 -60 -63z"/>
<path d="M3028 6607 c-39 -33 -49 -59 -38 -97 13 -45 37 -68 75 -76 43 -8 93
18 110 59 39 94 -70 180 -147 114z"/>
<path d="M3485 6621 c-37 -16 -60 -51 -60 -93 0 -33 6 -45 33 -69 37 -33 71
-37 112 -12 106 62 28 220 -85 174z"/>
<path d="M3070 6271 c-14 -3 -32 -10 -41 -16 -20 -13 -46 -56 -44 -72 2 -7 3
-21 4 -30 0 -10 12 -30 25 -45 52 -61 167 -18 169 64 2 65 -52 112 -113 99z"/>
<path d="M3511 6272 c-85 -13 -117 -107 -56 -168 66 -66 190 9 164 99 -14 49
-58 77 -108 69z"/>
<path d="M3243 5038 c-34 -16 -50 -72 -52 -174 -2 -109 13 -155 58 -178 42
-22 75 -20 108 8 l28 24 0 140 c0 135 -1 141 -24 166 -26 28 -77 34 -118 14z"/>
<path d="M3990 4862 c-39 -12 -84 -71 -141 -182 -37 -73 -33 -105 16 -148 40
-36 86 -35 125 3 38 36 120 196 120 233 0 53 -72 109 -120 94z"/>
<path d="M2539 4842 c-18 -9 -42 -32 -53 -51 l-19 -33 53 -104 c58 -115 94
-154 144 -154 32 0 71 21 93 49 18 25 8 75 -33 152 -70 130 -124 171 -185 141z"/>
<path d="M4440 4300 c-85 -46 -136 -87 -148 -121 -20 -53 28 -129 83 -129 48
0 201 84 252 138 31 33 23 78 -22 120 -46 42 -72 41 -165 -8z"/>
<path d="M1989 4291 c-16 -16 -30 -37 -30 -45 -1 -9 -2 -22 -3 -28 -4 -30 22
-62 83 -102 151 -98 230 -103 263 -16 19 51 2 87 -63 131 -73 49 -160 89 -195
89 -15 0 -38 -12 -55 -29z"/>
<path d="M4545 3619 c-58 -10 -92 -62 -80 -125 9 -52 40 -67 153 -72 153 -7
210 16 219 86 7 54 -10 88 -52 102 -37 12 -186 18 -240 9z"/>
<path d="M1834 3595 c-73 -20 -88 -106 -30 -164 22 -22 33 -24 128 -26 161 -2
207 16 213 86 4 52 -21 90 -71 109 -33 13 -190 9 -240 -5z"/>
<path d="M3254 3600 c-25 -10 -43 -67 -49 -153 -3 -34 -5 -236 -5 -450 l-1
-388 33 -29 c18 -17 37 -30 43 -31 5 0 18 -2 27 -4 9 -2 36 9 60 24 l42 27 3
364 c2 200 5 366 7 368 4 3 52 -22 166 -88 102 -59 246 -129 275 -134 22 -4
35 2 61 28 43 43 47 100 12 133 -22 20 -222 143 -233 143 -3 0 -22 11 -43 23
-129 82 -320 177 -352 176 -14 0 -34 -4 -46 -9z"/>
<path d="M4338 2969 c-15 -11 -32 -35 -38 -55 -14 -43 0 -69 63 -115 92 -68
191 -102 242 -83 23 9 45 57 45 98 0 43 -46 85 -153 139 -83 42 -120 45 -159
16z"/>
<path d="M2153 2951 c-112 -53 -171 -97 -181 -133 -15 -55 22 -119 75 -133 27
-6 126 39 208 95 79 54 88 121 23 175 -38 32 -49 31 -125 -4z"/>
<path d="M3883 2509 c-18 -12 -34 -26 -34 -32 -1 -7 -3 -23 -4 -37 -3 -30 87
-209 121 -241 36 -33 96 -31 132 4 38 39 36 86 -11 178 -73 143 -128 177 -204
128z"/>
<path d="M2648 2512 c-24 -10 -91 -100 -124 -167 -39 -82 -39 -112 2 -153 30
-30 39 -34 72 -29 48 8 93 57 148 163 44 83 47 108 16 149 -25 35 -77 52 -114
37z"/>
<path d="M3247 2330 l-31 -28 0 -128 c0 -142 7 -165 55 -190 40 -20 78 -11
115 27 28 29 29 33 29 132 -1 170 -17 205 -100 212 -28 3 -43 -3 -68 -25z"/>
<path d="M3050 933 c-28 -10 -59 -45 -65 -74 -12 -55 46 -119 107 -119 13 0
38 12 56 28 82 70 4 202 -98 165z"/>
<path d="M3473 924 c-58 -29 -68 -107 -19 -153 55 -52 148 -26 162 44 8 46
-11 92 -47 110 -35 19 -56 19 -96 -1z"/>
<path d="M3069 580 c-47 -13 -67 -30 -78 -63 -31 -92 80 -168 157 -109 75 58
11 197 -79 172z"/>
<path d="M3495 577 c-64 -21 -91 -78 -62 -133 34 -65 111 -76 160 -24 35 39
36 87 2 128 -28 34 -58 42 -100 29z"/>
<path d="M108 6738 c-4 -11 -3 -63 1 -146 1 -14 6 -22 14 -20 18 7 20 178 2
178 -7 0 -15 -6 -17 -12z"/>
<path d="M333 6713 c-9 -3 -13 -30 -13 -87 0 -85 3 -98 23 -90 11 4 16 169 6
178 -2 2 -10 1 -16 -1z"/>
</g>
</svg>
