<?xml version="1.0" standalone="no"?>
<!DOCTYPE svg PUBLIC "-//W3C//DTD SVG 20010904//EN"
 "http://www.w3.org/TR/2001/REC-SVG-20010904/DTD/svg10.dtd">
<svg version="1.0" xmlns="http://www.w3.org/2000/svg"
 width="700.000000pt" height="700.000000pt" viewBox="0 0 700.000000 700.000000"
 preserveAspectRatio="xMidYMid meet">
<metadata>
Created by potrace 1.14, written by Peter Selinger 2001-2017
</metadata>
<g transform="translate(0.000000,700.000000) scale(0.100000,-0.100000)"
fill="#000000" stroke="none">
<path d="M2245 6971 c-68 -39 -147 -125 -170 -185 -11 -28 -143 -444 -295
-927 l-276 -877 -209 -217 c-116 -119 -225 -238 -242 -263 -20 -28 -37 -69
-43 -102 -15 -77 -24 -1152 -13 -1510 l9 -296 30 -54 c19 -35 106 -133 251
-283 209 -216 224 -234 242 -291 11 -34 104 -329 206 -656 357 -1142 359
-1147 447 -1213 82 -61 113 -70 278 -78 204 -10 1436 -10 1661 0 164 7 181 10
232 35 33 16 77 50 109 84 43 48 58 73 81 143 89 270 217 672 376 1177 l180
573 203 212 c264 275 275 288 289 339 6 24 14 136 18 250 4 114 9 209 12 212
3 3 47 10 98 15 168 18 233 72 253 212 5 42 8 172 6 299 -4 206 -6 228 -26
266 -47 91 -150 144 -279 144 l-61 0 -4 213 c-4 236 -8 253 -75 336 -21 25
-125 135 -232 244 l-195 197 -208 663 c-114 364 -247 783 -295 932 l-88 269
-54 59 c-30 32 -73 68 -95 80 l-41 22 -1015 3 -1015 2 -50 -29z m189 -187 c3
-9 6 -154 6 -323 l0 -307 33 -31 c56 -54 97 -53 160 5 l27 26 0 323 0 323 644
0 645 0 3 -317 c3 -346 4 -348 61 -383 42 -26 55 -25 105 7 l42 27 0 302 c0
166 3 316 6 333 8 39 29 40 95 5 62 -34 68 -47 163 -344 76 -238 301 -960 330
-1059 l16 -54 -23 19 c-12 10 -101 95 -197 189 -291 285 -291 285 -524 285
l-154 0 -25 -30 c-45 -53 -47 -95 -7 -138 20 -21 27 -22 200 -22 l180 0 0 -33
c0 -30 14 -48 123 -153 67 -66 338 -310 602 -543 264 -233 486 -430 494 -437
13 -12 10 -19 -17 -53 l-32 -40 0 -864 c0 -851 0 -864 20 -882 11 -10 20 -22
20 -26 0 -5 -222 -211 -492 -458 -271 -248 -554 -506 -628 -576 -74 -69 -144
-133 -154 -142 -18 -15 -91 -18 -785 -26 l-766 -9 -26 -24 -26 -24 -18 20
c-14 15 -31 20 -71 20 l-53 0 -3 38 c-3 34 -18 51 -168 195 -91 86 -344 341
-564 565 -258 264 -407 408 -422 410 -20 3 -23 11 -31 70 -4 37 -8 438 -8 892
0 770 1 827 18 851 9 14 15 28 12 31 -3 3 41 48 97 100 57 52 320 313 586 580
l482 484 89 12 c56 8 242 12 504 12 l416 0 21 22 c27 29 39 76 28 113 -17 63
12 60 -561 60 l-522 0 -48 -28 c-27 -16 -147 -123 -268 -239 -121 -116 -222
-208 -225 -205 -14 14 438 1397 463 1419 50 44 116 60 127 32z m3287 -3034
l39 0 0 -234 0 -233 -46 -7 c-26 -3 -57 -6 -70 -6 l-24 0 0 246 0 247 31 -7
c17 -3 49 -6 70 -6z m-3635 -2291 c106 -102 211 -198 234 -214 l41 -28 297 -9
c163 -5 578 -8 922 -6 688 4 651 0 735 67 22 18 129 118 238 223 109 105 200
188 203 186 5 -6 -58 -214 -223 -733 -219 -693 -207 -666 -299 -707 -35 -15
-49 -17 -58 -8 -7 7 -13 112 -16 338 l-5 326 -42 30 c-40 28 -44 29 -79 15
-20 -8 -46 -27 -58 -42 -20 -27 -21 -41 -24 -353 l-3 -324 -645 0 -644 0 0
328 0 328 -27 26 c-16 15 -40 31 -55 37 -34 13 -72 0 -110 -37 l-28 -26 0
-315 c0 -174 -4 -322 -8 -329 -11 -16 -63 1 -109 34 -29 22 -41 54 -156 401
-132 397 -276 847 -324 1008 -7 26 -3 22 243 -216z"/>
<path d="M3034 6619 c-25 -13 -54 -60 -54 -89 0 -12 7 -35 17 -50 50 -86 176
-54 190 47 5 37 2 45 -25 73 -24 23 -39 30 -69 29 -21 0 -47 -5 -59 -10z"/>
<path d="M3449 6599 c-33 -35 -37 -74 -14 -119 41 -79 156 -63 185 26 23 69
-21 124 -98 124 -36 0 -49 -5 -73 -31z"/>
<path d="M3033 6261 c-56 -35 -68 -82 -33 -139 26 -43 63 -57 113 -42 43 13
77 58 77 102 0 16 -12 41 -27 58 -37 40 -86 48 -130 21z"/>
<path d="M3484 6271 c-33 -15 -64 -61 -64 -97 0 -41 40 -90 80 -99 66 -15 140
58 125 124 -12 57 -87 95 -141 72z"/>
<path d="M2860 5300 c-239 -8 -199 17 -740 -478 -501 -459 -472 -426 -556
-644 l-34 -88 2 -603 3 -602 49 -115 49 -115 170 -168 c93 -92 175 -166 181
-164 6 2 19 18 30 36 26 46 13 82 -80 222 -129 193 -207 376 -255 599 -20 90
-23 135 -23 310 -1 175 3 221 22 313 92 437 319 798 667 1058 195 146 406 236
654 281 164 29 429 29 595 -1 595 -106 1095 -538 1281 -1106 90 -276 106 -640
40 -913 -131 -543 -550 -991 -1094 -1172 -168 -56 -294 -80 -463 -87 -320 -13
-588 52 -878 212 -63 35 -127 67 -141 70 -34 8 -80 -15 -99 -50 -14 -26 -13
-27 100 -136 123 -117 153 -137 300 -192 212 -81 201 -80 679 -74 423 4 427 4
516 30 100 30 212 71 296 111 41 20 144 107 396 336 296 269 346 318 382 379
51 86 92 176 137 299 l34 93 0 568 0 567 -30 88 c-35 103 -112 269 -162 347
-26 41 -127 136 -377 358 -375 332 -376 333 -595 406 l-104 35 -398 -2 c-220
-1 -469 -4 -554 -8z"/>
<path d="M3233 5035 c-12 -8 -27 -32 -34 -53 -17 -52 -17 -209 0 -250 26 -63
116 -83 165 -37 l27 25 -3 146 c-3 139 -4 147 -27 165 -28 23 -97 25 -128 4z"/>
<path d="M3973 4860 c-41 -17 -153 -200 -153 -250 0 -54 57 -110 113 -110 44
0 127 108 174 228 14 36 14 43 -2 75 -10 21 -30 42 -50 51 -37 18 -50 19 -82
6z"/>
<path d="M2532 4844 c-32 -16 -62 -58 -62 -86 0 -20 65 -153 100 -203 38 -55
83 -73 133 -52 41 18 67 52 67 88 0 39 -65 162 -113 213 -49 53 -79 62 -125
40z"/>
<path d="M4450 4309 c-92 -46 -170 -114 -170 -148 0 -75 61 -127 128 -109 95
26 242 134 242 177 0 48 -64 121 -106 121 -7 0 -49 -19 -94 -41z"/>
<path d="M1997 4309 c-9 -5 -24 -24 -33 -41 -23 -45 -11 -91 34 -128 44 -37
186 -110 214 -110 54 0 98 50 98 112 0 84 -238 211 -313 167z"/>
<path d="M4533 3624 c-68 -15 -98 -127 -47 -175 24 -22 34 -24 152 -27 120 -3
129 -2 162 20 33 23 35 27 35 82 0 86 -18 96 -166 101 -63 2 -124 1 -136 -1z"/>
<path d="M1834 3603 c-59 -11 -89 -95 -54 -151 27 -44 54 -52 174 -52 120 0
161 11 181 51 25 48 19 87 -19 125 l-34 34 -113 -1 c-63 -1 -124 -4 -135 -6z"/>
<path d="M3234 3585 c-9 -13 -20 -42 -25 -62 -5 -21 -9 -236 -9 -479 l0 -441
23 -20 c55 -50 84 -53 143 -16 l44 28 2 366 3 367 115 -65 c165 -92 310 -163
335 -163 59 0 106 84 81 145 -14 33 -93 83 -401 255 -163 91 -207 110 -256
110 -30 0 -42 -5 -55 -25z"/>
<path d="M4364 2990 c-34 -14 -74 -69 -74 -102 0 -87 262 -221 327 -167 26 22
43 74 36 109 -7 39 -56 77 -167 131 -85 41 -89 42 -122 29z"/>
<path d="M2110 2934 c-97 -50 -150 -99 -150 -140 0 -54 53 -114 101 -114 29 0
168 74 217 116 23 19 43 47 47 63 12 55 -43 121 -99 121 -14 0 -66 -21 -116
-46z"/>
<path d="M3869 2501 c-40 -41 -37 -72 16 -179 73 -146 117 -177 195 -137 62
32 65 85 13 192 -21 42 -54 94 -74 115 -31 32 -42 38 -78 38 -34 0 -49 -6 -72
-29z"/>
<path d="M2627 2500 c-52 -41 -137 -200 -137 -256 0 -40 53 -84 101 -84 48 0
87 38 147 143 60 105 63 134 19 180 -41 44 -88 50 -130 17z"/>
<path d="M3245 2336 c-30 -30 -39 -87 -33 -213 4 -93 5 -96 36 -124 38 -34 74
-37 120 -9 46 28 54 58 50 193 l-3 119 -33 29 c-42 38 -102 40 -137 5z"/>
<path d="M3035 928 c-34 -18 -55 -51 -55 -86 0 -49 54 -102 104 -102 48 0 82
23 96 65 14 42 5 77 -27 110 -28 27 -81 33 -118 13z"/>
<path d="M3474 930 c-32 -13 -54 -50 -54 -91 0 -53 47 -99 101 -99 92 0 135
106 70 171 -31 30 -73 37 -117 19z"/>
<path d="M3044 576 c-84 -37 -85 -139 -1 -182 78 -41 165 35 137 120 -20 63
-77 89 -136 62z"/>
<path d="M3490 583 c-8 -3 -27 -17 -42 -31 -80 -74 23 -208 120 -158 38 19 54
47 54 91 0 43 -16 72 -52 90 -30 15 -53 18 -80 8z"/>
</g>
</svg>
